<?xml version="1.0" encoding="UTF-8"?>
<svg version="1.2" baseProfile="tiny-ps" xmlns="http://www.w3.org/2000/svg"
     viewBox="0 0 100 100">
<title>Kenzi Services</title>
<desc>Kenzi Services IT Consulting Logo</desc>
<rect x="0" y="0" width="100" height="100" fill="#1a0a2e"/>
<g transform="translate(0,100) scale(0.034722,-0.034722)" fill="#b44aff" stroke="none">
<path d="M1126 2794 c-3 -9 -6 -76 -6 -150 l0 -134 -29 0 c-52 0 -204 30 -248
50 -23 10 -62 32 -87 49 -45 32 -70 38 -80 22 -12 -19 9 -45 67 -82 74 -48
160 -76 283 -91 l94 -11 0 -82 c0 -92 16 -129 44 -106 11 10 16 36 18 104 l3
92 64 7 c77 9 182 39 269 78 34 16 62 27 62 24 0 -2 -11 -21 -24 -42 -111
-177 -160 -387 -138 -602 7 -62 9 -116 6 -121 -3 -5 -86 -9 -185 -9 -151 0
-181 -2 -185 -15 -4 -8 -1 -21 5 -28 6 -8 101 -45 211 -83 l201 -69 14 -49 c8
-27 15 -53 15 -58 0 -4 -217 -9 -482 -10 -463 -3 -483 -4 -486 -22 -2 -10 2
-22 10 -27 7 -5 232 -9 499 -9 l486 0 31 -82 c17 -46 49 -132 72 -193 76 -197
94 -288 94 -460 0 -205 -27 -296 -120 -395 -89 -95 -184 -125 -370 -118 -189
8 -294 61 -353 179 -48 97 -38 208 28 290 34 42 39 67 15 76 -21 8 -55 -27
-90 -90 -24 -44 -29 -66 -32 -142 -3 -75 0 -98 17 -138 30 -69 65 -111 127
-152 87 -58 152 -76 289 -82 189 -8 289 23 392 120 92 87 135 188 153 359 19
190 -9 338 -121 636 -38 102 -69 187 -69 188 0 2 87 4 194 4 160 0 196 3 206
15 9 11 10 18 1 29 -6 7 -113 49 -237 92 -129 44 -229 85 -234 93 -4 9 -10 32
-12 51 l-3 35 448 2 c246 1 447 -1 447 -5 0 -4 -43 -65 -95 -137 -94 -127
-110 -166 -74 -173 11 -2 54 49 130 155 138 190 130 178 123 197 -6 14 -58 16
-499 16 -436 0 -494 2 -499 15 -3 9 -9 71 -12 139 -15 266 45 452 212 656 35
44 64 83 64 88 0 5 -6 15 -14 21 -11 10 -34 1 -113 -45 -153 -88 -246 -123
-405 -149 l-38 -6 0 135 c0 147 -3 166 -30 166 -10 0 -21 -7 -24 -16z m308
-1070 c9 -8 16 -26 16 -39 l0 -23 -89 31 c-49 18 -87 35 -85 38 2 4 35 7 73 8
51 1 74 -3 85 -15z m226 -196 c126 -44 127 -47 12 -48 l-103 0 -15 35 c-19 46
-18 59 4 50 9 -4 55 -20 102 -37z M1142 1124 c-98 -43 -95 -209 5 -251 75 -31
151 0 179 72 28 76 -2 152 -72 181 -41 17 -69 17 -112 -2z m113 -69 c35 -34
30 -101 -9 -127 -19 -13 -71 -9 -94 8 -20 14 -23 23 -20 67 3 43 7 54 28 64
38 19 68 16 95 -12z"/>
</g>
</svg>
